<svg xmlns="http://www.w3.org/2000/svg" width="332.4" height="47.2" viewBox="0 0 332.4 47.2"><path d="M216.1,41.5H216c-2.8,3.6-5.7,5.6-10.3,5.6-5.7,0-9.8-3.2-9.8-9.1,0-10.5,11.7-11.3,19.5-11.3h2.9a12.288,12.288,0,0,0,.2-2.7c0-3.2-3.5-4.1-6.4-4.1a24.187,24.187,0,0,0-10.5,2.5l1.2-6.6a33.178,33.178,0,0,1,10.8-1.9c6.4,0,12.4,2.3,12.4,9.8,0,4.3-3.2,16.8-3.9,22.8h-7l1-5m-8.1-.4c6.2,0,8.1-4.3,9.4-9.4h-2.9c-4,0-10.7.7-10.7,6.1C203.8,39.9,205.9,41.1,208,41.1Z" fill="#fff"/><path d="M1.3,14.5h6L8.7,7.9,17.6,5l-2,9.5H23l-1.3,6.1H14.3l-3,13.9a12.306,12.306,0,0,0-.4,3.1,2.966,2.966,0,0,0,3.2,3.1,11.468,11.468,0,0,0,4-.7l-1.4,6.4a22.229,22.229,0,0,1-4.5.7c-5.6,0-9.6-2.2-9.6-8.3a31.545,31.545,0,0,1,1.1-7.4L6,20.6H0Z" fill="#fff"/><path d="M26.4,14.5h8.3L27.9,46.3H19.6l6.8-31.8M29.4.8h8.3L36,8.7H27.7Z" fill="#fff"/><path d="M59.7,21.8a10.887,10.887,0,0,0-6.1-1.6c-6.6,0-10.3,6.2-10.3,12.2,0,4.1,1.4,8.3,7,8.3A16.816,16.816,0,0,0,57,39.1l-.9,6.6a18.384,18.384,0,0,1-8,1.5c-8.2,0-13.5-5.5-13.5-13.7,0-11.1,7.4-19.6,18.8-19.6a32.412,32.412,0,0,1,8.3,1.2Z" fill="#fff"/><path d="M68.8,0h8.3L71.6,26.1h.1L83.3,14.5H94L78.8,29l9.5,17.4H79L70.8,29.5h-.1L67.1,46.4H59Z" fill="#fff"/><path d="M123.9,14.5h6l1.4-6.6L140.2,5l-2,9.5h7.4l-1.3,6.1h-7.4l-3,13.9a12.306,12.306,0,0,0-.4,3.1,2.966,2.966,0,0,0,3.2,3.1,11.468,11.468,0,0,0,4-.7l-1.4,6.4a22.229,22.229,0,0,1-4.5.7c-5.6,0-9.6-2.2-9.6-8.3a31.545,31.545,0,0,1,1.1-7.4l2.3-10.8h-6Z" fill="#fff"/><path d="M121.1,25.9c0-8.1-5.2-12.1-13-12.1C97.6,13.8,90,23.3,90,33.2c0,9.5,6.2,13.9,15.3,13.9a34.6,34.6,0,0,0,10.1-1.8l1.1-6.6a23.863,23.863,0,0,1-9.8,2.3c-5.3,0-8.4-1.9-8.8-6.9h0V32.9h0a16.9,16.9,0,0,1,1.3-6.3h0c1.6-4.1,3.8-6.9,8.7-6.9,3.5,0,5.3,1.9,5.3,5.3a17.96,17.96,0,0,1-.2,2.2H101.7a20.413,20.413,0,0,0-.9,5.7h19.5A32.659,32.659,0,0,0,121.1,25.9Z" fill="#fff"/><path d="M149.2,18c.2-1.2.5-2.5.7-3.5h7.7l-.7,4.3h.1a11.565,11.565,0,0,1,9.8-5c3.8,0,7.7,2.2,8.1,6.1h.1c2.1-4.1,6.7-6.1,11.2-6.1a8.792,8.792,0,0,1,8.8,8.7,35.939,35.939,0,0,1-1.4,8.7l-3.3,15.2H182l3.3-15.5a40.128,40.128,0,0,0,1.1-6.8,3.758,3.758,0,0,0-3.9-3.8c-5.8,0-7.2,6.7-8.2,11L171,46.4h-8.3L166,30.9a40.128,40.128,0,0,0,1.1-6.8,3.758,3.758,0,0,0-3.9-3.8c-5.6,0-7.2,6.7-8.2,11l-3.3,15.1h-8.3Z" fill="#fff"/><path d="M250.7,21a13.2,13.2,0,0,0-5.5-1.2c-2.5,0-5.6.7-5.6,3.2,0,4,10.8,5.5,10.8,13.3,0,8.3-7.2,10.8-14.3,10.8a23.017,23.017,0,0,1-9.7-1.9l1.8-6.6a15.4,15.4,0,0,0,7.9,2.5c2.8,0,5.7-.9,5.7-3.5C241.8,32.5,231,32,231,24c0-7.5,7.2-10.1,13.8-10.1a36.271,36.271,0,0,1,7.8,1Z" fill="#fff"/><path d="M256,14.5h6l1.4-6.6L272.3,5l-2,9.5h7.4l-1.3,6.1H269l-3,13.9a12.306,12.306,0,0,0-.4,3.1,2.966,2.966,0,0,0,3.2,3.1,11.468,11.468,0,0,0,4-.7l-1.4,6.4a22.229,22.229,0,0,1-4.5.7c-5.6,0-9.6-2.2-9.6-8.3a37.6,37.6,0,0,1,1-7.4l2.4-10.8h-6Z" fill="#fff"/><path d="M312.2,18.8c.2-1.4.5-2.8.7-4.3h7.9l-1.1,6h.1c1.5-3.5,5.6-6.7,9.4-6.7a16.551,16.551,0,0,1,3.2.3l-1.7,8.1a10.733,10.733,0,0,0-3.2-.5c-5.9,0-8.7,5.3-9.8,10.4l-3,14.3h-8.3Z" fill="#fff"/><path d="M306.5,25.9c0-8.1-5.2-12.1-13-12.1-10.4,0-18.1,9.5-18.1,19.4,0,9.5,6.2,13.9,15.3,13.9a34.6,34.6,0,0,0,10.1-1.8l1.1-6.6a23.863,23.863,0,0,1-9.8,2.3c-5.3,0-8.4-1.9-8.8-6.9h0V32.9h0a16.9,16.9,0,0,1,1.3-6.3h0c1.6-4.1,3.8-6.9,8.7-6.9,3.5,0,5.3,1.9,5.3,5.3a17.959,17.959,0,0,1-.2,2.2H287.1a20.412,20.412,0,0,0-.9,5.7h19.5A32.659,32.659,0,0,0,306.5,25.9Z" fill="#fff"/></svg>