<svg width="355" height="58" viewBox="0 0 355 58" fill="none" xmlns="http://www.w3.org/2000/svg">
<path d="M29.3286 7.81051C41.4908 4.64308 52.5847 2.57513 60.6109 0.643911C60.9994 0.552762 60.9137 -0.0226168 60.5138 0.000170465C50.0654 0.558459 18.8174 2.22193 18.8174 2.22193C0.851263 3.65753 -2.4392 10.7159 1.46251 16.1735L8.5233 26.0517C8.72896 26.3423 9.18597 26.1942 9.19168 25.841C9.25452 18.287 13.8303 11.8553 29.3344 7.81051H29.3286Z" fill="white"/>
<path d="M23.7017 47.4318C23.9702 47.8306 24.5072 47.6939 24.4443 47.164C23.6331 42.054 25.0042 28.6323 31.8536 22.0183C41.9935 12.2254 54.9383 8.36869 67.0547 1.91418C67.3803 1.73758 67.1918 1.24196 66.8319 1.33311C58.3944 3.44663 36.3208 9.29157 28.8773 12.3337C20.2284 15.8714 8.64324 26.7125 19.3315 41.6723L23.7017 47.4375V47.4318Z" fill="white"/>
<path d="M224.1 19.6975C225.653 19.6975 226.954 20.9253 226.954 22.5309C226.954 24.1364 225.653 25.3957 224.1 25.3957C222.547 25.3957 221.224 24.1679 221.224 22.5309C221.224 20.8938 222.536 19.6975 224.1 19.6975ZM224.1 24.976C225.422 24.976 226.44 23.9266 226.44 22.5309C226.44 21.1352 225.422 20.1173 224.1 20.1173C222.777 20.1173 221.749 21.1667 221.749 22.5309C221.749 23.8951 222.767 24.976 224.1 24.976ZM222.987 20.8728H224.278C225.065 20.8728 225.443 21.1876 225.443 21.8278C225.443 22.4259 225.065 22.6778 224.561 22.7303L225.516 24.1994H224.96L224.058 22.7722H223.512V24.1994H222.998V20.8728H222.987ZM223.502 22.3525H224.047C224.498 22.3525 224.929 22.3315 224.929 21.8068C224.929 21.366 224.551 21.2926 224.194 21.2926H223.512L223.502 22.3525Z" fill="white"/>
<path d="M243.702 19.6975H253.483C262.067 19.6975 267.072 24.934 267.072 33.4026C267.072 41.8712 262.067 47.1077 253.483 47.1077H243.702V19.6975ZM253.441 43.4978C259.485 43.4978 262.759 39.8039 262.759 33.4026C262.759 27.0013 259.485 23.3179 253.441 23.3179H247.816V43.4978H253.441Z" fill="white"/>
<path d="M270.042 22.2789C270.042 21.0091 271.081 19.9282 272.393 19.9282C273.705 19.9282 274.744 20.9671 274.744 22.2789C274.744 23.5906 273.705 24.6295 272.393 24.6295C271.081 24.6295 270.042 23.5906 270.042 22.2789ZM270.462 27.2425H274.313V47.118H270.462V27.2425Z" fill="white"/>
<path d="M278.826 48.5032H282.677C282.981 50.8539 284.723 52.0082 287.641 52.0082C291.261 52.0082 293.223 50.1193 293.223 46.4674V44.2742C291.796 46.2365 289.645 47.3594 286.833 47.3594C281.323 47.3594 277.703 43.2772 277.703 37.0753C277.703 30.8734 281.281 26.7913 286.791 26.7913C289.718 26.7913 291.954 28.0191 293.381 30.0654V27.253H297.075V46.3939C297.075 51.5885 293.958 55.1354 287.599 55.1354C282.205 55.1354 279.204 52.4804 278.815 48.5137L278.826 48.5032ZM293.339 37.0648C293.339 32.6364 291.062 30.0969 287.525 30.0969C283.989 30.0969 281.712 32.7938 281.712 37.0648C281.712 41.3359 283.989 44.0328 287.525 44.0328C291.062 44.0328 293.339 41.4933 293.339 37.0648Z" fill="white"/>
<path d="M301.01 22.2789C301.01 21.0091 302.049 19.9282 303.36 19.9282C304.672 19.9282 305.711 20.9671 305.711 22.2789C305.711 23.5906 304.672 24.6295 303.36 24.6295C302.049 24.6295 301.01 23.5906 301.01 22.2789ZM301.43 27.2425H305.281V47.118H301.43V27.2425Z" fill="white"/>
<path d="M311.178 42.6897V30.4013H307.978V27.2426H311.178V21.5444H315.03V27.2426H319.038V30.4013H315.03V42.3434C315.03 43.4978 315.607 44.0435 317.307 44.0435H319.038V47.1287C318.188 47.2021 317.38 47.2441 316.688 47.2441C313.109 47.2441 311.178 46.0163 311.178 42.6897Z" fill="white"/>
<path d="M334.402 44.4211C333.058 46.4989 330.823 47.5798 327.927 47.5798C323.656 47.5798 320.844 45.502 320.844 41.6822C320.844 38.4815 322.764 36.0574 328.315 35.5222L331.243 35.2179C333.163 34.987 334.213 34.3364 334.213 32.7203C334.213 30.8734 333.247 29.866 330.131 29.866C327.014 29.866 325.702 30.7475 325.513 33.4444H321.704C321.935 29.4357 324.17 26.7808 330.141 26.7808C336.112 26.7808 338.001 29.1734 338.001 32.6364V43.1513C338.001 43.7705 338.305 44.1482 339.082 44.1482H340.163V47.118C339.586 47.1915 338.893 47.2335 338.274 47.2335C335.808 47.2335 334.696 46.352 334.423 44.4211H334.402ZM328.515 44.5785C331.327 44.5785 334.213 43.0044 334.213 39.2686V37.1908C333.636 37.6525 332.828 37.8834 331.747 37.9988L328.976 38.3031C325.776 38.6914 324.821 39.8037 324.821 41.5772C324.821 43.3507 326.017 44.5785 328.515 44.5785Z" fill="white"/>
<path d="M342.524 42.6897V19.6975H346.375V42.3434C346.375 43.4978 346.879 44.0435 348.296 44.0435H349.723V47.1287C348.957 47.2021 348.18 47.2441 347.572 47.2441C344.297 47.2441 342.524 46.0163 342.524 42.6897Z" fill="white"/>
<path d="M114.711 25.0179V19.687H95.7063V47.1077H114.711V41.5459H103.409V35.4699H112.811V30.139H103.409V25.0179H114.711Z" fill="white"/>
<path d="M148.249 41.6928H136.37V19.687H128.573V47.1077H148.249V41.6928Z" fill="white"/>
<path d="M211.003 30.1389C205.746 28.9531 203.909 28.8167 203.909 26.7284C203.909 24.787 206.512 24.1784 208.013 24.1784C210.447 24.1784 213.302 24.745 216.208 26.2457L218.328 21.1981C215.348 19.561 211.507 18.8894 207.813 18.8894C200.562 18.8894 195.693 21.8277 195.493 27.5679C195.283 32.7939 199.534 34.7563 203.448 35.5643C207.215 36.3408 211.035 37.0125 211.119 39.2477C211.192 41.315 209.335 42.1965 205.83 42.1965C202.587 42.1965 199.565 41.1576 196.48 39.8668L194.685 45.3446C198.222 46.8558 201.821 47.6848 205.536 47.6848C210.689 47.6848 214.445 46.8873 217.216 44.2848C219.136 42.5008 219.766 40.3495 219.766 38.2927C219.755 33.9482 217.058 31.5031 211.003 30.1389Z" fill="white"/>
<path d="M84.6562 25.0914V19.687H60.7405V25.0914H68.8208V47.1077H76.5653V25.0914H84.6562Z" fill="white"/>
<path d="M174.831 19.687V37.107C174.831 38.4712 174.831 38.849 174.747 39.3841C174.505 41.0422 172.889 42.0076 170.318 42.0391C168.419 42.0076 167.023 41.4515 166.373 40.4545C166.047 39.9403 165.89 39.0274 165.89 37.5582V19.687H157.81V38.5866C157.81 41.2101 158.156 42.3854 159.342 43.8756C161.294 46.3206 165.092 47.6009 170.339 47.6009C170.392 47.6009 170.455 47.6009 170.507 47.6009C170.539 47.6009 170.581 47.6009 170.623 47.6009C177.633 47.6009 181.253 44.862 182.302 42.3015C182.827 41.0632 182.869 40.4755 182.869 37.9675V19.687H174.831Z" fill="white"/>
</svg>
